<?xml version="1.0" standalone="no"?>
<!DOCTYPE svg PUBLIC "-//W3C//DTD SVG 20010904//EN"
 "http://www.w3.org/TR/2001/REC-SVG-20010904/DTD/svg10.dtd">
<svg version="1.0" xmlns="http://www.w3.org/2000/svg"
 width="630.000000pt" height="687.000000pt" viewBox="0 0 630.000000 687.000000"
 preserveAspectRatio="xMidYMid meet">
<metadata>
Created by potrace 1.15, written by Peter Selinger 2001-2017
</metadata>
<g transform="translate(0.000000,687.000000) scale(0.100000,-0.100000)"
fill="#000000" stroke="none">
<path d="M4970 6846 c0 -44 -48 -221 -95 -351 -80 -220 -317 -760 -451 -1027
-69 -137 -207 -373 -297 -508 -100 -148 -534 -757 -546 -764 -13 -8 -174 294
-451 845 -298 594 -445 920 -534 1184 -56 164 -106 378 -113 479 l-6 89 -216
-6 c-119 -4 -380 -10 -579 -14 -362 -6 -364 -6 -359 -27 2 -12 28 -109 56
-216 111 -421 205 -647 569 -1370 323 -641 499 -979 647 -1244 62 -110 160
-287 219 -392 l107 -192 -273 -363 c-325 -432 -474 -641 -633 -884 -301 -459
-410 -622 -495 -741 -246 -342 -436 -532 -750 -751 -140 -98 -257 -165 -545
-313 -239 -123 -230 -118 -224 -125 3 -2 286 -32 630 -65 l624 -61 110 62 c61
34 173 98 250 142 319 180 541 342 735 537 211 210 324 370 637 905 242 413
401 671 408 663 1 -2 26 -57 55 -123 341 -778 651 -1270 1074 -1704 225 -230
573 -511 633 -511 36 0 1063 137 1069 142 2 3 -35 27 -84 54 -485 272 -910
699 -1233 1241 -147 248 -230 428 -464 1008 -157 391 -191 467 -290 666 -42
84 -75 157 -73 164 2 7 170 217 374 467 860 1052 980 1221 1250 1758 140 280
387 800 464 980 64 149 138 366 128 375 -3 4 -304 9 -667 12 l-661 6 0 -27z"/>
</g>
</svg>
