<?xml version="1.0" standalone="no"?>
<!DOCTYPE svg PUBLIC "-//W3C//DTD SVG 20010904//EN"
 "http://www.w3.org/TR/2001/REC-SVG-20010904/DTD/svg10.dtd">
<svg version="1.0" xmlns="http://www.w3.org/2000/svg"
 width="630.000000pt" height="687.000000pt" viewBox="0 0 630.000000 687.000000"
 preserveAspectRatio="xMidYMid meet">
<metadata>
Created by potrace 1.15, written by Peter Selinger 2001-2017
</metadata>
<g fill="#f0f1f2;" stoke = "on">
<path d="M4970 6846 c0 -44 -48 -221 -95 -351 -80 -220 -317 -760 -451 -1027
-69 -137 -207 -373 -297 -508 -100 -148 -534 -757 -546 -764 -13 -8 -174 294
-451 845 -298 594 -445 920 -534 1184 -56 164 -106 378 -113 479 l-6 89 -216
-6 c-119 -4 -380 -10 -579 -14 -362 -6 -364 -6 -359 -27 2 -12 28 -109 56
-216 111 -421 205 -1370 323 -641 499 -979 647 -1244 62 -110 160
-287 219 -392 l107 -192 -273 -363 c-325 -432 -474 -641 -633 -884 -301 -459
-410 -622 -495 -741 -246 -342 -436 -532 -750 -751 -140 -98 -257 -165 -545
-313 -239 -123 -230 -118 -224 -125 3 -2 286 -32 630 -65 l624 -61 110 62 c61
34 173 98 250 142 319 180 541 342 735 537 211 210 324 370 637 905 242 413
401 671 408 663 1 -2 26 -57 55 -123 341 -778 651 -1270 1074 -1704 225 -230
573 -511 633 -511 36 0 1063 137 1069 142 2 3 -35 27 -84 54 -485 272 -910
699 -1233 1241 -147 248 -231 428 -464 1008 -73 182 -153 375 -177 430 -58
130 -171 355 -175 351 -2 -2 17 -50 42 -107 157 -351 212 -479 337 -784 221
-538 305 -715 446 -945 160 -260 314 -453 556 -696 207 -206 376 -341 585
-468 93 -57 111 -71 95 -77 -35 -14 -1004 -140 -1017 -133 -32 20 -283 219
-372 295 -121 105 -331 319 -439 449 -159 190 -343 453 -461 660 -77 134 -324
630 -394 790 -35 80 -67 149 -71 153 -10 11 -88 -109 -293 -453 -446 -750
-543 -894 -734 -1086 -235 -238 -470 -407 -938 -674 l-180 -103 -190 17 c-594
53 -981 97 -978 110 0 5 104 66 230 134 435 238 625 373 874 621 202 202 258
277 641 850 378 565 494 729 826 1174 201 269 273 373 269 387 -3 11 -104 201
-225 422 -452 830 -993 1899 -1127 2228 -68 166 -204 603 -221 706 -6 40 -5
42 22 47 16 4 223 11 459 17 237 5 475 12 531 15 l101 5 6 -98 c11 -196 136
-580 317 -972 91 -198 530 -1084 649 -1310 96 -183 132 -237 151 -225 12 7
378 526 516 730 219 326 346 562 557 1040 172 389 253 602 296 780 12 50 25
96 29 102 9 14 1091 30 1215 19 l79 -8 -7 -26 c-21 -86 -208 -520 -380 -882
-227 -479 -367 -739 -530 -985 -196 -295 -301 -429 -1263 -1612 -19 -24 -30
-43 -25 -43 6 0 176 204 380 453 861 1053 980 1221 1249 1757 140 280 387 800
464 980 64 149 138 366 128 375 -3 4 -304 9 -667 12 l-661 6 0 -27z"/>
</g>
</svg>
