<?xml version="1.0" standalone="no"?>
<!DOCTYPE svg PUBLIC "-//W3C//DTD SVG 20010904//EN"
 "http://www.w3.org/TR/2001/REC-SVG-20010904/DTD/svg10.dtd">
<svg version="1.0" xmlns="http://www.w3.org/2000/svg"
 width="618.000000pt" height="682.000000pt" viewBox="0 0 618.000000 682.000000"
 preserveAspectRatio="xMidYMid meet">
<metadata>
Created by potrace 1.15, written by Peter Selinger 2001-2017
</metadata>
<g transform="translate(0.000000,682.000000) scale(0.100000,-0.100000)"
fill="#000000" stroke="none">
<path d="M4848 6708 c-15 -61 -33 -115 -40 -119 -7 -4 -9 -11 -6 -14 20 -21
-291 -754 -476 -1122 -70 -141 -208 -376 -299 -513 -89 -133 -535 -758 -546
-764 -17 -11 -568 1054 -554 1068 5 4 0 12 -10 17 -9 6 -17 19 -17 29 0 11 -5
20 -11 20 -5 0 -8 4 -5 9 4 5 2 11 -3 13 -16 6 -173 344 -290 624 -111 267
-196 567 -208 728 l-6 89 -336 -7 c-185 -3 -446 -9 -579 -13 -241 -6 -244 -6
-239 -27 23 -104 116 -437 152 -541 96 -284 195 -498 598 -1291 330 -650 431
-841 632 -1194 67 -118 143 -254 169 -302 l47 -87 -229 -303 c-320 -424 -503
-678 -670 -933 -80 -121 -205 -311 -277 -421 -389 -591 -594 -818 -981 -1086
-129 -90 -291 -183 -507 -293 -86 -44 -157 -86 -157 -93 0 -9 19 -3 55 18 30
17 60 28 66 24 8 -4 9 -3 5 4 -7 12 5 16 32 13 7 -1 11 4 10 11 -2 7 5 12 14
12 10 -1 15 2 12 7 -5 8 9 13 29 10 4 0 7 4 7 10 0 6 7 8 16 5 8 -3 12 -2 9 4
-3 6 -1 10 4 10 20 0 26 3 37 18 7 9 16 12 24 7 9 -5 11 -4 6 3 -6 11 6 16 27
13 4 0 7 3 7 9 0 5 7 10 15 10 8 0 15 5 15 10 0 6 9 10 20 10 11 0 20 5 20 10
0 6 7 10 15 10 8 0 15 5 15 10 0 6 5 10 11 10 6 0 24 9 40 21 16 11 29 17 29
12 0 -4 5 0 11 10 6 9 14 15 19 12 4 -3 11 2 14 11 3 8 10 13 15 10 5 -3 11 1
15 9 3 8 12 15 21 15 8 0 15 5 15 10 0 6 7 10 15 10 8 0 15 5 15 10 0 6 7 10
15 10 8 0 15 5 15 10 0 6 7 10 15 10 8 0 15 5 15 10 0 6 6 10 14 10 8 0 17 7
20 16 4 9 9 14 12 11 3 -3 16 5 29 19 12 13 27 24 34 24 6 0 11 5 11 10 0 6 5
10 10 10 6 0 21 11 34 25 13 14 28 25 35 25 6 0 10 4 9 9 -2 5 0 9 5 10 4 0
19 13 33 28 15 16 31 27 36 25 5 -1 7 2 3 8 -3 6 3 14 14 18 11 4 20 10 20 15
1 4 4 7 9 8 4 0 10 9 14 20 5 12 13 17 19 13 8 -4 9 -3 5 5 -4 7 2 15 16 20
13 4 22 12 22 17 -1 5 3 7 10 6 6 -2 8 0 4 4 -10 9 12 35 23 28 5 -3 8 -1 7 4
-2 5 10 21 25 36 15 14 24 26 20 26 -4 0 4 11 19 24 16 13 28 28 28 34 0 6 6
15 13 19 7 4 24 24 37 43 13 19 30 41 37 48 6 7 51 71 99 142 48 72 92 130 96
130 5 0 6 5 3 10 -3 6 1 13 9 16 9 3 13 10 10 15 -3 5 2 12 10 15 9 3 13 10
10 15 -3 5 2 12 10 15 9 3 16 12 16 20 0 8 5 14 10 14 6 0 10 7 10 15 0 8 5
15 10 15 6 0 10 7 10 15 0 8 5 15 10 15 6 0 10 7 10 15 0 8 4 15 9 15 5 0 12
11 15 25 4 14 11 23 17 20 5 -4 9 -3 8 2 -3 20 2 34 11 28 6 -4 10 -3 9 2 -3
20 2 34 11 28 6 -4 10 -3 9 2 -3 20 2 34 11 28 6 -4 10 -3 9 2 -3 20 2 34 11
28 6 -4 10 -3 9 2 -3 20 2 34 11 28 6 -4 10 -3 9 2 -3 20 2 34 11 28 6 -4 10
-3 9 2 -3 20 2 34 11 28 6 -4 10 -3 9 2 -3 20 2 34 11 28 6 -4 10 -3 9 2 -3
19 2 34 9 29 5 -3 9 0 9 7 0 19 34 68 43 62 4 -3 7 3 6 13 0 9 4 16 10 15 7
-1 11 5 10 15 0 9 4 16 10 15 7 -1 11 5 10 15 0 9 4 16 10 15 7 -1 11 5 10 15
0 9 5 16 11 15 7 -2 12 0 12 5 -3 18 2 33 9 28 5 -3 9 1 9 8 0 19 133 207 143
201 4 -3 7 3 6 13 0 9 5 16 12 14 8 -1 11 2 7 8 -8 13 36 71 48 63 6 -3 7 -1
3 5 -11 18 4 37 16 21 8 -11 9 -10 5 2 -7 21 21 62 35 53 7 -4 8 -2 4 5 -8 13
31 74 44 66 4 -3 7 3 6 13 0 9 5 16 11 15 7 -2 12 0 12 5 -1 4 -1 14 0 22 1
13 2 13 12 0 9 -13 10 -13 6 0 -5 18 31 73 43 65 4 -3 7 3 6 13 0 9 5 16 11
15 7 -2 12 0 12 5 -3 20 2 32 13 26 6 -4 8 -3 4 4 -3 6 2 15 11 21 10 5 18 13
17 18 -2 15 28 53 37 47 5 -3 9 -2 8 3 -4 21 2 34 13 27 7 -4 8 -3 4 5 -4 6 0
14 8 17 9 3 13 10 10 15 -3 5 1 12 9 15 8 3 17 15 20 26 4 13 10 17 18 12 8
-4 10 -3 5 5 -4 6 0 14 8 17 9 3 13 10 10 15 -3 5 2 12 10 15 9 3 13 10 10 15
-3 5 2 12 10 15 9 3 16 11 16 16 0 6 11 21 24 33 14 13 22 26 19 29 -3 3 2 8
11 12 9 3 14 10 11 14 -3 5 -1 11 5 15 13 8 13 52 1 60 -5 3 -12 19 -16 35 -4
17 -11 30 -16 30 -5 0 -9 4 -9 10 0 5 -13 30 -30 56 -16 26 -27 50 -25 54 3 5
-2 11 -11 14 -9 4 -14 9 -11 12 3 4 -1 13 -9 21 -8 8 -12 19 -9 24 4 5 2 9 -3
9 -8 0 -20 26 -20 46 -1 3 -9 12 -19 20 -10 7 -14 14 -10 14 5 0 1 7 -7 16 -9
8 -14 20 -11 25 4 5 1 9 -4 9 -6 0 -11 7 -11 15 0 8 -5 15 -11 15 -6 0 -8 7
-5 16 3 8 2 12 -4 9 -10 -6 -14 7 -11 34 2 7 -2 10 -8 6 -10 -6 -16 8 -12 28
1 5 -3 6 -9 2 -9 -6 -14 7 -11 28 0 4 -4 7 -10 7 -6 0 -8 7 -5 16 3 8 2 13 -3
10 -11 -7 -23 22 -15 35 3 5 0 8 -8 7 -7 -2 -12 5 -12 14 1 10 -1 16 -5 13
-11 -6 -52 85 -45 97 4 7 2 8 -4 4 -11 -7 -17 6 -13 27 1 5 -3 6 -8 3 -11 -7
-23 22 -14 36 3 6 2 8 -4 5 -13 -8 -36 41 -27 55 4 6 2 8 -3 5 -13 -8 -26 20
-16 35 3 7 1 8 -5 4 -11 -7 -17 6 -13 27 1 5 -2 6 -7 3 -13 -8 -33 40 -26 61
4 14 3 15 -4 5 -7 -11 -10 -10 -16 3 -3 9 -3 22 1 27 3 6 2 8 -4 5 -13 -8 -36
41 -27 55 4 6 2 8 -3 5 -13 -8 -26 20 -16 35 3 6 1 8 -4 5 -13 -8 -76 109 -67
125 4 6 3 8 -3 5 -12 -8 -56 81 -47 95 4 6 3 8 -3 5 -13 -8 -34 38 -27 60 4
14 3 15 -4 5 -7 -11 -10 -10 -16 3 -3 9 -3 22 1 27 3 6 2 8 -4 5 -13 -8 -34
38 -27 60 5 14 4 15 -4 4 -8 -11 -48 61 -166 299 -86 173 -154 320 -151 328 2
7 1 11 -3 8 -12 -7 -54 83 -46 96 4 6 3 8 -3 5 -14 -9 -65 101 -58 126 4 15 3
18 -3 9 -7 -11 -10 -10 -16 3 -3 9 -3 22 1 27 3 6 1 8 -4 5 -17 -10 -138 275
-129 300 4 9 1 11 -6 7 -8 -5 -9 2 -4 22 4 17 3 24 -2 16 -6 -9 -12 -1 -20 24
-6 21 -9 41 -6 46 3 4 0 8 -6 8 -7 0 -10 7 -6 15 3 8 1 15 -5 15 -6 0 -8 9 -4
21 5 16 4 19 -6 14 -9 -6 -11 -2 -7 13 4 14 2 20 -4 16 -7 -5 -9 2 -6 19 3 16
1 24 -5 20 -6 -4 -8 2 -5 15 4 12 3 20 -1 17 -11 -6 -85 261 -77 280 4 10 2
14 -6 9 -7 -5 -9 1 -6 19 3 16 1 24 -5 20 -6 -4 -7 -1 -3 6 6 9 36 12 100 10
50 -1 98 1 106 5 8 3 86 5 173 3 87 -2 160 0 163 3 3 3 87 6 187 7 100 1 231
4 290 7 l109 5 -3 -67 c-2 -37 -1 -71 2 -77 4 -5 6 -22 5 -37 -1 -16 2 -28 6
-28 4 0 7 -8 6 -17 0 -28 32 -159 49 -203 4 -8 7 -18 7 -22 1 -3 4 -9 8 -13 4
-4 4 -13 1 -21 -3 -8 0 -14 7 -14 7 0 10 -7 6 -15 -3 -8 -2 -15 2 -15 4 0 14
-21 22 -47 7 -27 14 -51 15 -55 2 -5 4 -11 5 -15 1 -5 2 -11 1 -15 0 -5 4 -8
10 -8 7 0 9 -9 6 -21 -3 -12 -3 -18 1 -15 8 8 33 -54 26 -65 -3 -5 0 -9 6 -9
7 0 10 -6 8 -12 -3 -7 1 -19 9 -26 7 -8 11 -18 8 -23 -4 -5 -1 -9 5 -9 7 0 10
-7 6 -15 -3 -8 -1 -15 4 -15 6 0 10 -9 10 -20 0 -11 5 -20 11 -20 6 0 9 -7 5
-15 -3 -8 -1 -15 4 -15 6 0 10 -9 10 -20 0 -11 5 -20 11 -20 6 0 9 -7 5 -15
-3 -8 -2 -15 2 -15 8 0 47 -81 44 -92 -1 -5 2 -8 7 -8 8 0 22 -32 25 -55 1 -5
3 -12 6 -15 14 -14 50 -90 43 -90 -4 0 -3 -4 2 -8 17 -12 181 -350 177 -364
-1 -5 2 -8 6 -8 13 0 33 -50 26 -62 -4 -7 -2 -8 4 -4 11 6 16 -6 13 -26 0 -5
3 -8 7 -8 13 0 33 -50 26 -62 -4 -7 -2 -8 4 -4 11 6 16 -6 13 -26 0 -5 3 -8 7
-8 13 0 33 -50 26 -62 -4 -7 -2 -8 4 -4 11 6 16 -6 13 -26 0 -5 3 -8 7 -8 13
0 33 -50 26 -62 -4 -7 -2 -8 4 -4 7 4 12 2 12 -3 0 -18 3 -26 17 -39 7 -8 11
-18 8 -23 -4 -5 -1 -9 5 -9 7 0 9 -7 6 -16 -3 -8 -2 -12 4 -9 9 5 15 -9 8 -18
-2 -2 5 -11 15 -21 9 -10 15 -22 12 -27 -4 -5 -1 -9 4 -9 6 0 11 -7 11 -15 0
-8 5 -15 11 -15 6 0 9 -6 6 -14 -3 -8 1 -17 8 -20 9 -3 12 -12 8 -22 -4 -12
-3 -15 5 -10 8 5 12 0 12 -13 0 -12 4 -21 9 -21 7 0 19 -28 19 -47 0 -3 4 -9
9 -12 4 -3 17 -24 29 -46 98 -186 117 -203 158 -135 9 17 22 30 27 30 6 0 7 5
4 10 -3 6 1 13 9 16 9 3 13 10 10 15 -3 5 2 12 10 15 9 3 13 10 10 15 -3 5 1
12 9 15 8 3 17 15 20 26 3 11 10 17 15 14 5 -3 9 2 8 12 0 9 4 16 10 15 7 -1
11 5 10 15 0 9 5 16 12 14 6 -1 11 1 11 5 -3 21 2 34 11 28 6 -4 10 -3 9 2 -4
21 2 34 13 27 7 -4 8 -3 4 5 -4 6 0 14 8 17 9 3 13 10 10 15 -3 5 2 12 10 15
9 3 14 10 11 14 -3 5 4 15 15 23 11 7 17 17 14 20 -4 4 1 9 10 13 9 3 13 10
10 15 -3 5 2 12 10 15 9 3 13 10 10 15 -3 5 2 12 10 15 9 3 16 12 16 20 0 8 5
14 10 14 6 0 10 7 10 15 0 8 5 15 10 15 6 0 10 6 10 14 0 8 4 16 8 18 11 5
162 225 162 238 0 5 5 10 10 10 6 0 10 7 10 15 0 8 5 15 10 15 6 0 10 7 10 15
0 8 5 15 10 15 6 0 10 5 10 11 0 6 14 30 30 54 17 24 30 48 30 54 0 6 5 11 11
11 5 0 8 4 4 9 -3 6 3 14 12 20 10 5 17 11 16 13 -5 6 10 48 16 48 4 0 13 16
21 35 8 19 18 35 22 35 5 0 6 5 3 10 -3 6 0 13 9 16 8 3 12 12 9 20 -3 7 2 16
10 20 9 3 13 12 10 20 -3 8 0 14 6 14 6 0 11 7 11 15 0 8 5 15 11 15 5 0 8 4
4 9 -3 5 1 15 8 23 8 7 12 19 9 26 -2 6 1 12 7 12 6 0 10 3 10 8 -3 20 2 32
13 26 6 -4 8 -3 4 4 -8 13 13 62 27 62 6 0 8 3 4 6 -3 4 1 21 10 38 17 31 19
37 22 57 0 5 5 7 11 4 6 -3 7 1 4 9 -3 9 -1 16 5 16 6 0 11 9 11 20 0 11 4 20
10 20 5 0 7 7 4 15 -4 8 -1 15 6 15 6 0 9 4 5 9 -3 5 3 17 12 27 10 10 17 19
16 21 -2 2 -3 4 -2 6 0 1 2 11 4 21 2 10 10 23 17 27 7 5 9 9 4 9 -6 0 -5 5 2
12 7 7 12 20 12 30 0 10 5 18 10 18 6 0 10 3 9 8 -2 15 14 52 23 52 5 0 8 6 7
13 -2 10 6 35 28 87 3 8 7 17 8 20 1 3 8 19 15 35 7 17 14 32 15 35 1 3 8 19
15 35 7 17 14 33 15 38 2 4 4 9 5 12 1 3 3 9 4 14 0 5 4 13 9 17 4 4 7 13 7
20 0 7 5 25 12 41 6 15 12 30 13 33 1 3 4 12 8 20 6 17 47 154 73 245 9 33 22
63 28 67 7 5 3 8 -9 8 -18 0 -24 -15 -47 -112z"/>
<path d="M6167 6770 c5 -17 3 -21 -7 -15 -8 5 -11 4 -7 -2 8 -13 -22 -103 -35
-103 -5 0 -7 -4 -3 -9 6 -11 -15 -61 -26 -61 -5 0 -6 -7 -3 -15 4 -8 1 -15 -5
-15 -6 0 -10 -3 -10 -7 1 -5 1 -17 0 -28 -1 -17 -3 -18 -12 -5 -8 12 -9 10 -4
-7 4 -14 2 -23 -4 -23 -6 0 -10 -3 -10 -7 1 -5 1 -17 0 -28 -1 -17 -3 -18 -12
-5 -8 12 -9 10 -4 -7 4 -14 2 -23 -4 -23 -6 0 -10 -3 -10 -7 3 -21 -2 -33 -13
-27 -7 5 -8 3 -4 -5 9 -14 -13 -73 -24 -66 -5 3 -6 -5 -2 -17 4 -16 2 -19 -8
-13 -8 5 -11 4 -7 -3 9 -14 -3 -43 -14 -36 -5 3 -6 -2 -3 -10 3 -9 1 -16 -5
-16 -6 0 -10 -3 -10 -7 4 -25 -2 -43 -13 -37 -6 4 -8 3 -4 -4 9 -14 -14 -63
-27 -55 -6 3 -7 1 -4 -5 9 -13 -2 -44 -13 -37 -5 3 -6 -5 -2 -17 4 -16 2 -19
-8 -13 -8 5 -11 4 -7 -3 9 -14 -3 -43 -14 -36 -5 3 -6 -2 -3 -10 3 -9 1 -16
-5 -16 -6 0 -10 -3 -10 -7 3 -21 -2 -33 -12 -28 -6 4 -10 1 -8 -6 3 -27 -1
-40 -11 -34 -6 3 -7 -1 -4 -9 3 -9 1 -16 -6 -16 -6 0 -9 -4 -6 -9 8 -13 -4
-42 -15 -35 -5 3 -6 -2 -3 -10 3 -9 1 -16 -5 -16 -6 0 -10 -3 -10 -7 3 -21 -2
-33 -13 -27 -6 4 -8 3 -5 -4 9 -14 -3 -43 -14 -36 -5 3 -6 -2 -3 -10 3 -9 1
-16 -5 -16 -6 0 -10 -3 -10 -7 3 -21 -2 -33 -13 -27 -6 4 -8 3 -5 -4 9 -14 -3
-43 -14 -36 -5 3 -6 -2 -3 -10 3 -9 1 -16 -5 -16 -6 0 -10 -3 -10 -7 3 -21 -2
-33 -12 -28 -6 4 -10 1 -8 -6 3 -27 -1 -40 -11 -34 -6 3 -7 -1 -4 -9 3 -9 1
-16 -5 -16 -6 0 -10 -3 -10 -7 3 -21 -2 -33 -12 -28 -6 4 -10 1 -8 -6 3 -27
-1 -40 -11 -34 -6 3 -7 -1 -4 -9 3 -9 1 -16 -5 -16 -6 0 -10 -3 -10 -7 3 -21
-2 -33 -13 -27 -6 4 -8 3 -5 -4 9 -14 -3 -43 -14 -36 -5 3 -9 2 -8 -3 4 -21
-2 -34 -13 -27 -6 4 -8 3 -4 -4 8 -14 -14 -63 -26 -56 -5 3 -8 2 -7 -3 4 -21
-2 -34 -13 -27 -6 4 -8 3 -5 -4 9 -14 -3 -43 -14 -36 -5 3 -9 2 -8 -3 3 -19
-2 -34 -10 -29 -5 3 -8 -2 -7 -12 0 -9 -5 -16 -12 -14 -8 1 -11 -2 -7 -8 8
-13 -26 -71 -37 -64 -5 3 -8 2 -7 -3 3 -19 -2 -34 -10 -29 -5 3 -8 -2 -7 -12
0 -9 -4 -16 -10 -15 -7 1 -11 -5 -10 -15 0 -9 -4 -16 -10 -15 -7 1 -11 -5 -10
-15 0 -9 -4 -16 -10 -15 -7 1 -11 -5 -10 -15 0 -9 -4 -16 -10 -15 -7 1 -11 -5
-10 -15 0 -9 -4 -16 -10 -15 -7 1 -11 -5 -10 -15 0 -9 -5 -16 -12 -14 -6 1
-11 -1 -11 -5 4 -22 -2 -33 -13 -27 -7 4 -10 4 -6 -1 11 -11 -11 -47 -24 -39
-6 4 -8 3 -5 -3 9 -14 -42 -85 -55 -77 -7 4 -8 3 -4 -4 9 -15 -34 -73 -47 -65
-6 3 -7 2 -4 -4 8 -12 -21 -55 -33 -48 -4 3 -7 -3 -6 -13 0 -9 -5 -16 -12 -14
-8 1 -11 -2 -8 -7 7 -11 -33 -63 -44 -56 -4 3 -7 -3 -6 -13 0 -9 -5 -16 -12
-14 -8 1 -11 -2 -8 -7 7 -11 -33 -63 -44 -56 -4 3 -7 -3 -6 -13 0 -10 -5 -16
-14 -14 -8 2 -12 0 -8 -4 10 -9 -31 -66 -43 -58 -5 3 -9 2 -8 -3 4 -21 -2 -34
-13 -27 -6 4 -8 3 -5 -3 7 -12 -16 -36 -25 -27 -3 3 -5 -3 -5 -13 1 -10 -4
-17 -11 -15 -8 1 -11 -2 -8 -7 4 -5 -2 -14 -11 -20 -10 -5 -17 -13 -17 -18 2
-14 -33 -53 -41 -45 -3 4 -5 0 -3 -8 1 -8 -3 -14 -10 -12 -6 1 -11 -1 -11 -5
4 -22 -2 -33 -13 -27 -7 4 -10 4 -6 -1 9 -10 -11 -37 -22 -30 -4 3 -7 -3 -6
-13 0 -10 -5 -16 -14 -14 -8 2 -12 0 -8 -4 9 -9 -11 -36 -22 -29 -4 3 -7 -3
-6 -13 0 -9 -5 -16 -12 -14 -8 1 -11 -2 -8 -7 4 -5 -2 -14 -11 -20 -10 -6 -14
-11 -9 -11 5 0 3 -7 -4 -15 -7 -8 -16 -12 -21 -9 -5 3 -9 2 -8 -3 3 -20 -2
-34 -11 -28 -6 4 -9 1 -8 -7 2 -7 -3 -12 -10 -10 -6 1 -11 -1 -10 -5 3 -15
-14 -43 -23 -37 -5 3 -8 0 -7 -8 2 -7 -3 -12 -9 -11 -7 2 -12 0 -12 -5 4 -21
-2 -32 -13 -26 -7 4 -10 4 -6 -1 9 -10 -11 -37 -22 -30 -4 3 -7 -3 -6 -13 0
-9 -5 -16 -12 -14 -8 1 -11 -2 -8 -7 4 -5 0 -13 -7 -18 -7 -4 -17 -16 -20 -26
-4 -11 -12 -15 -18 -11 -7 4 -9 3 -5 -4 3 -6 -2 -15 -11 -21 -10 -6 -14 -11
-9 -11 5 0 3 -7 -4 -15 -7 -8 -17 -12 -23 -8 -6 3 -7 1 -3 -5 3 -6 0 -14 -8
-19 -8 -4 -16 -12 -18 -18 -2 -5 -7 -9 -11 -7 -5 1 -6 -2 -2 -8 3 -5 -1 -13
-9 -16 -9 -3 -14 -10 -11 -14 3 -5 -8 -20 -25 -33 -16 -14 -30 -30 -30 -36 0
-5 -3 -11 -8 -13 -9 -4 -82 -103 -82 -112 0 -18 27 -2 40 24 8 16 162 209 341
427 862 1053 998 1246 1289 1838 373 759 555 1184 523 1216 -9 9 -10 6 -6 -11z"/>
<path d="M3993 3198 c1 -16 5 -28 10 -28 5 0 7 -9 4 -20 -3 -11 -1 -18 4 -14
8 5 13 -9 10 -28 0 -5 4 -8 10 -8 6 0 8 -9 4 -22 -5 -18 -4 -20 4 -8 9 13 11
12 12 -5 1 -11 1 -23 0 -27 0 -5 4 -8 10 -8 6 0 8 -7 5 -16 -3 -8 -2 -13 3
-10 11 7 23 -22 14 -36 -3 -7 -1 -8 5 -4 12 7 28 -37 23 -63 -1 -7 2 -10 7 -7
13 8 33 -40 25 -61 -4 -10 -2 -14 4 -10 13 8 36 -40 27 -56 -4 -7 -3 -9 1 -4
11 10 37 -51 28 -67 -3 -6 -2 -8 2 -3 10 9 37 -51 29 -64 -3 -5 0 -9 6 -9 7 0
9 -7 6 -16 -3 -8 -2 -13 3 -10 11 7 23 -22 15 -35 -3 -5 0 -9 6 -9 7 0 9 -7 6
-16 -3 -8 -2 -13 3 -10 11 7 23 -22 15 -35 -3 -5 0 -9 6 -9 7 0 9 -7 6 -16 -3
-8 -2 -12 4 -9 9 5 15 -15 11 -37 0 -5 4 -8 10 -8 6 0 9 -7 5 -15 -3 -8 -2
-15 3 -15 11 0 32 -50 26 -61 -4 -5 -1 -9 5 -9 7 0 10 -6 8 -12 -3 -7 1 -19 9
-26 7 -8 11 -18 8 -23 -4 -5 -1 -9 5 -9 7 0 10 -6 7 -14 -3 -8 -1 -16 4 -18 6
-2 12 -12 14 -23 2 -11 4 -22 5 -25 1 -3 2 -8 1 -12 0 -5 4 -8 9 -8 6 0 10 -9
10 -19 0 -11 5 -23 10 -26 6 -4 8 -11 5 -16 -4 -5 -1 -9 4 -9 6 0 11 -9 11
-19 0 -11 5 -23 10 -26 6 -4 8 -11 5 -16 -4 -5 -2 -9 4 -9 6 0 13 -16 17 -35
3 -19 10 -35 15 -35 5 0 9 -5 9 -11 0 -10 21 -61 58 -139 9 -19 15 -38 14 -42
-1 -5 3 -8 8 -8 6 0 10 -9 10 -20 0 -11 5 -20 10 -20 6 0 10 -5 10 -11 0 -13
31 -82 40 -89 9 -7 24 -43 22 -52 -1 -5 2 -8 6 -8 5 0 14 -16 22 -35 8 -19 17
-35 22 -35 4 0 8 -5 8 -11 0 -6 14 -30 30 -54 17 -24 30 -48 30 -54 0 -6 5
-11 10 -11 6 0 10 -7 10 -15 0 -8 5 -15 10 -15 6 0 10 -7 10 -15 0 -8 5 -15
10 -15 6 0 10 -6 10 -13 0 -7 9 -23 20 -35 11 -12 20 -26 20 -32 0 -5 5 -10
10 -10 6 0 10 -6 10 -14 0 -8 7 -17 16 -20 8 -3 13 -10 10 -15 -3 -5 1 -12 10
-15 9 -4 14 -9 11 -12 -3 -3 2 -14 11 -23 27 -28 47 -55 50 -66 2 -5 10 -14
18 -18 8 -5 12 -12 9 -18 -4 -5 1 -9 9 -9 9 0 16 -6 16 -14 0 -8 7 -17 16 -20
9 -4 14 -9 11 -12 -3 -3 13 -24 35 -45 23 -21 38 -39 35 -39 -4 0 11 -17 33
-39 22 -21 40 -44 40 -50 0 -6 3 -10 8 -9 11 4 52 -35 46 -44 -3 -4 2 -8 10
-8 9 0 16 -7 16 -15 0 -8 6 -14 13 -13 6 2 11 -3 9 -9 -1 -7 5 -13 13 -13 8 0
15 -7 15 -15 0 -8 5 -15 11 -15 6 0 33 -22 60 -50 27 -27 52 -50 55 -50 4 0
17 -11 30 -25 13 -14 26 -25 30 -25 4 0 17 -11 30 -26 13 -14 24 -21 24 -17 0
4 11 -4 24 -20 13 -15 28 -27 33 -27 6 0 22 -11 36 -24 14 -13 28 -21 31 -19
3 3 8 -2 12 -11 3 -9 12 -16 20 -16 8 0 14 -4 14 -10 0 -5 7 -10 15 -10 8 0
15 -4 15 -10 0 -5 7 -10 15 -10 8 0 15 -4 15 -10 0 -5 7 -10 15 -10 8 0 15 -5
15 -11 0 -5 4 -8 9 -4 6 3 13 -1 18 -9 8 -14 12 -16 34 -16 5 0 7 -5 4 -10 -4
-6 -3 -10 2 -9 19 3 34 -2 29 -10 -3 -5 2 -8 12 -7 12 1 16 -5 14 -19 -2 -15
-1 -17 6 -6 10 14 32 7 32 -11 0 -6 -16 -9 -40 -6 -22 2 -40 0 -40 -5 0 -5
-16 -7 -35 -5 -19 2 -35 0 -35 -4 0 -5 -18 -7 -40 -4 -27 3 -38 1 -34 -6 4 -7
-7 -9 -35 -6 -22 2 -41 0 -41 -5 0 -4 -18 -6 -40 -3 -22 3 -40 1 -40 -4 0 -5
-16 -8 -35 -6 -19 1 -35 -2 -35 -7 0 -5 -16 -7 -35 -5 -19 2 -35 0 -35 -4 0
-5 -18 -7 -40 -4 -27 3 -38 1 -34 -6 4 -7 -7 -9 -35 -6 -22 2 -41 -1 -41 -6 0
-5 -18 -6 -40 -3 -26 3 -38 2 -34 -5 4 -7 -8 -9 -34 -6 -22 2 -38 -1 -35 -5 3
-5 -13 -8 -36 -5 -22 2 -41 0 -41 -4 0 -5 15 -8 33 -8 45 -1 900 112 910 120
4 3 -30 27 -76 53 -482 268 -916 704 -1237 1244 -146 244 -216 394 -450 973
-170 421 -219 533 -306 708 -40 80 -62 117 -61 100z"/>
<path d="M3283 2358 c4 -10 0 -21 -8 -25 -13 -8 -15 -12 -15 -34 0 -5 -5 -7
-10 -4 -6 4 -10 3 -9 -2 3 -20 -2 -34 -11 -28 -6 4 -10 3 -9 -2 3 -20 -2 -34
-11 -28 -6 4 -10 3 -9 -2 4 -21 -2 -34 -13 -27 -8 5 -9 2 -5 -10 4 -10 1 -19
-8 -22 -8 -4 -12 -10 -9 -15 3 -5 -2 -12 -10 -15 -9 -3 -14 -10 -11 -14 3 -5
-2 -13 -11 -18 -9 -5 -16 -13 -16 -18 -2 -23 -11 -44 -19 -44 -5 0 -9 -7 -9
-15 0 -8 -4 -15 -8 -15 -5 0 -14 -16 -22 -35 -8 -19 -17 -35 -22 -35 -4 0 -8
-7 -8 -15 0 -8 -4 -15 -10 -15 -5 0 -10 -7 -10 -15 0 -8 -5 -15 -10 -15 -6 0
-9 -3 -9 -7 3 -20 -2 -34 -11 -28 -5 3 -10 -3 -10 -14 0 -12 -5 -21 -11 -21
-5 0 -8 -4 -4 -9 3 -6 -3 -14 -12 -20 -10 -5 -17 -12 -15 -15 6 -14 1 -27 -8
-21 -6 4 -10 3 -9 -2 4 -21 -2 -34 -13 -27 -7 5 -8 3 -3 -6 5 -8 2 -18 -9 -26
-10 -7 -17 -15 -17 -18 3 -20 0 -27 -8 -22 -5 3 -8 -2 -7 -12 0 -9 -4 -16 -11
-15 -7 2 -10 -4 -7 -12 4 -8 1 -15 -6 -15 -6 0 -9 -4 -5 -9 3 -6 -2 -14 -11
-19 -9 -5 -15 -12 -15 -15 3 -21 0 -27 -11 -21 -6 4 -8 3 -4 -4 3 -6 -1 -18
-10 -26 -8 -9 -12 -16 -7 -16 4 0 1 -6 -8 -13 -16 -12 -19 -18 -19 -38 0 -5
-5 -7 -10 -4 -6 4 -10 3 -9 -2 3 -19 -2 -34 -10 -29 -5 3 -8 -2 -7 -12 0 -9
-4 -16 -10 -15 -7 1 -11 -5 -10 -15 0 -9 -5 -16 -12 -14 -7 1 -12 -3 -11 -10
3 -26 -1 -39 -11 -33 -6 4 -10 3 -9 -2 3 -20 -2 -34 -11 -28 -6 4 -10 3 -9 -2
3 -19 -2 -34 -10 -29 -5 3 -8 -2 -7 -12 0 -9 -4 -16 -10 -15 -7 1 -11 -5 -10
-15 0 -9 -4 -16 -10 -15 -7 1 -11 -5 -10 -15 0 -9 -4 -16 -10 -15 -7 1 -11 -5
-10 -15 0 -9 -5 -16 -12 -14 -8 1 -11 -2 -7 -8 9 -14 -34 -72 -47 -64 -7 4 -8
2 -4 -4 11 -18 -4 -37 -16 -21 -8 11 -9 10 -4 -3 6 -20 -100 -152 -115 -143
-5 3 -6 0 -4 -7 7 -19 -160 -182 -176 -172 -7 4 -9 3 -6 -3 9 -14 -71 -86 -85
-77 -6 4 -8 3 -5 -3 9 -14 -70 -76 -85 -67 -6 4 -8 3 -4 -4 9 -14 -32 -42 -53
-35 -11 3 -12 2 -3 -4 9 -7 4 -15 -18 -32 -17 -12 -35 -19 -40 -16 -6 4 -9 1
-8 -7 2 -7 -5 -12 -14 -12 -10 1 -16 -3 -15 -10 1 -6 -6 -10 -15 -10 -10 1
-16 -3 -15 -10 1 -6 -6 -10 -15 -10 -10 1 -16 -3 -15 -10 1 -6 -6 -10 -15 -10
-10 1 -16 -3 -15 -10 1 -6 -6 -10 -15 -10 -10 1 -16 -3 -15 -10 1 -6 -6 -10
-15 -10 -10 1 -16 -3 -15 -10 1 -6 -6 -10 -15 -10 -10 1 -16 -3 -15 -10 1 -6
-6 -10 -15 -10 -10 1 -16 -1 -13 -5 6 -11 -53 -43 -65 -36 -6 4 -9 1 -8 -7 2
-7 -5 -12 -14 -12 -10 1 -15 -2 -12 -7 5 -8 -10 -13 -29 -10 -5 1 -6 -3 -2 -9
6 -10 -7 -14 -34 -11 -7 2 -10 -2 -6 -8 6 -10 -8 -16 -28 -12 -5 1 -6 -3 -2
-9 6 -9 -7 -14 -27 -11 -5 0 -8 -4 -8 -10 0 -6 -7 -9 -15 -5 -8 3 -14 0 -12
-7 1 -7 -6 -11 -15 -11 -10 1 -15 -2 -12 -7 5 -9 -9 -13 -34 -10 -7 1 -11 -4
-10 -11 2 -7 -5 -12 -14 -12 -10 1 -15 -2 -12 -7 5 -8 -9 -13 -28 -10 -5 0 -8
-3 -8 -7 0 -12 -76 -53 -84 -45 -3 4 -30 7 -59 9 -28 1 -52 3 -52 4 0 3 -108
11 -152 11 -24 0 -43 4 -43 8 0 4 -25 7 -55 5 -30 -2 -55 1 -55 5 0 4 -25 6
-55 4 -30 -2 -55 0 -55 5 0 4 -19 7 -42 5 -24 -2 -50 0 -58 3 -8 4 -32 6 -53
5 -20 -2 -37 1 -37 6 0 5 -25 7 -55 5 -30 -2 -55 0 -55 5 0 7 -39 11 -143 12
-20 0 -37 4 -37 10 0 5 -18 7 -40 4 -23 -3 -40 -2 -40 4 0 6 -11 8 -25 5 -35
-6 -31 -19 8 -25 17 -3 277 -29 577 -58 l545 -52 232 131 c471 266 679 416
898 644 188 194 309 372 623 908 177 301 382 634 387 628 1 -2 42 -92 90 -201
220 -496 457 -914 696 -1228 255 -334 571 -643 880 -858 68 -48 72 -33 4 18
-31 23 -53 46 -50 50 2 5 -3 8 -13 7 -9 0 -16 5 -14 12 1 6 -1 11 -5 11 -21
-3 -34 2 -28 11 4 6 2 9 -4 8 -16 -5 -122 82 -115 94 4 6 2 8 -3 5 -15 -9 -65
32 -56 46 3 7 3 9 -2 5 -11 -11 -36 12 -28 25 4 6 1 7 -6 2 -16 -9 -83 53 -74
69 3 6 3 8 -2 4 -11 -10 -37 11 -29 23 3 5 0 8 -8 7 -7 -2 -12 4 -10 12 2 8 0
12 -4 8 -10 -11 -35 12 -27 26 3 6 3 8 -2 4 -11 -10 -37 11 -29 23 3 5 0 8 -8
7 -7 -2 -12 4 -10 12 2 8 0 12 -4 8 -10 -11 -35 12 -27 25 3 5 2 7 -4 4 -15
-9 -77 59 -68 74 5 7 4 10 -2 6 -13 -8 -36 17 -25 28 4 5 2 5 -4 2 -15 -8 -58
38 -49 53 4 6 1 9 -7 8 -7 -2 -12 3 -10 10 1 8 -2 11 -7 8 -12 -8 -53 49 -43
58 4 4 0 6 -8 4 -9 -2 -14 4 -14 14 1 10 -2 16 -6 13 -11 -7 -31 20 -22 30 4
5 1 5 -5 1 -12 -6 -18 5 -14 26 0 5 -5 7 -12 5 -6 -1 -11 6 -11 15 1 10 -2 16
-6 13 -11 -7 -51 50 -42 60 4 5 1 5 -5 1 -12 -7 -18 5 -14 27 1 5 -3 6 -9 2
-9 -6 -14 7 -11 27 0 5 -5 7 -12 5 -6 -1 -11 6 -11 15 1 10 -3 16 -10 15 -6
-1 -10 6 -10 15 1 10 -3 16 -10 15 -6 -1 -10 6 -10 15 1 10 -3 16 -10 15 -6
-1 -10 6 -10 15 1 10 -2 16 -6 13 -12 -7 -103 142 -95 155 4 6 1 9 -7 8 -8 -2
-12 6 -10 22 1 15 -1 20 -6 13 -10 -16 -46 42 -36 59 4 6 3 8 -2 5 -13 -8 -77
110 -68 124 4 7 3 9 -3 6 -13 -8 -26 20 -16 35 3 6 2 8 -4 5 -13 -8 -36 41
-27 55 4 6 3 8 -3 5 -13 -8 -46 50 -37 65 4 6 3 8 -3 5 -13 -8 -36 41 -27 55
4 6 2 8 -3 5 -13 -8 -26 20 -16 35 3 6 2 8 -4 5 -13 -8 -36 41 -27 55 4 6 2 8
-3 5 -12 -8 -26 20 -17 34 3 5 1 9 -5 9 -8 0 -27 40 -22 48 1 1 -5 10 -14 18
-8 9 -13 20 -10 25 4 5 1 9 -5 9 -7 0 -9 7 -6 16 3 8 2 12 -4 9 -10 -6 -14 7
-11 34 2 7 -2 10 -8 6 -10 -5 -15 7 -12 28 0 4 -4 7 -10 7 -6 0 -9 6 -7 12 3
7 -1 19 -9 26 -7 8 -11 18 -8 23 4 5 1 9 -5 9 -7 0 -10 6 -8 12 3 7 -1 19 -9
26 -7 8 -11 18 -8 23 4 5 1 9 -5 9 -7 0 -10 7 -6 15 3 8 1 15 -4 15 -6 0 -10
5 -10 11 0 6 -10 23 -22 37 -11 15 -18 19 -15 10z"/>
</g>
</svg>
